<?xml version="1.0" encoding="UTF-8"?>
<svg id="Layer_1" xmlns="http://www.w3.org/2000/svg" version="1.1" viewBox="0 0 576 399.23">
  <!-- Generator: Adobe Illustrator 29.7.1, SVG Export Plug-In . SVG Version: 2.1.1 Build 8)  -->
  <defs>
    <style>
      .st0 {
        fill: #231f20;
      }

      .st1 {
        fill: #fff;
      }

      .st1, .st2, .st3 {
        stroke: #000;
        stroke-miterlimit: 10;
      }

      .st1, .st3 {
        stroke-width: 2px;
      }

      .st2, .st3 {
        fill: none;
      }

      .st4 {
        fill: #7f7c7c;
      }
    </style>
  </defs>
  <g>
    <path class="st3" d="M369.56,302.09c-54.37-10.67-108.74-10.67-163.11,0v-61.93h163.11v61.93Z"/>
    <path class="st1" d="M283.84,258.1c26.99,6.97,56.12,6.43,79.06,6.43,36.42,0,65.94-28.3,65.94-63.22s-27.13-60.84-61.45-63.06c-10.97-29.96-43.13-35.6-79.38-35.6s-66.16,6.03-76.87,36.41c-35.5,1.01-63.96,28.89-63.96,63.17s29.52,63.22,65.94,63.22c23.53,0,50.54-2.45,70.73-7.37"/>
    <path class="st4" d="M322.06,258.91c1.6-.54,3.42-1.36,5.52-1.89,11.06-3.04,21-7.24,30.38-12.28,2.34-1.27,4.64-2.61,6.92-4,1.11-.72,2.22-1.44,3.33-2.17,1.07-.79,2.14-1.58,3.22-2.37,4.21-3.29,8.14-7.1,11.66-11.49,3.83-4.93,6.85-10.08,8.88-15.61,2.04-5.51,3.23-11.35,3.25-17.55l-.09,2.57c-.02.43-.03.86-.06,1.29l-.15,1.28-.29,2.56c-.14.85-.28,1.7-.39,2.55-.09.86-.28,1.7-.45,2.53-.18.83-.32,1.66-.54,2.47-.47,1.6-.85,3.23-1.45,4.77-1.04,3.16-2.49,6.18-4.13,9.31-.82,1.36-1.59,2.88-2.58,4.31-.48.73-.95,1.49-1.47,2.22-.54.72-1.09,1.45-1.63,2.19-2.27,2.88-4.85,5.69-7.71,7.96-3.55,2.88-6.84,5.1-9.6,6.75-2.75,1.69-4.96,2.97-6.58,3.88-3.23,1.83-4.02,2.27-2.07,1.29-2.58,1.36-4.24,2.76-6.82,4.12-5.28,2.59-10.42,4.02-15.45,5.42-.67.28-2.77,1.03-3.52,1.16-3.34.66-6.52,1.18-9.91,1.52-3.37.39-6.93.68-11.03.89.73-.13,1.46-.27,1.46-.27-1.5-.04-2.25-.06-3.75-.1,4.41-.7,10.19-1.81,15.07-3.33Z"/>
    <path class="st4" d="M290.34,250.89c.69-.8,1.32-1.95,2.38-2.79,5.29-4.82,10.06-9.48,14.64-14.28,4.57-4.8,8.94-9.75,13.09-15.39,2.19-3.21,4.17-6.32,5.74-9.61l1.18-2.47c.32-.86.64-1.71.97-2.57l.48-1.3c.15-.44.24-.9.37-1.35.23-.91.47-1.82.71-2.75-.27,1.03-.53,2.06-.8,3.09l-.19.77-.25.76c-.17.51-.32,1.02-.46,1.53-.47,2.11-1.28,3.99-1.94,5.96-.38.96-.81,1.89-1.23,2.86-.41.97-.83,1.95-1.34,2.92-.44.88-.9,1.82-1.39,2.79-.48.97-1.06,1.92-1.61,2.91-1.1,1.99-2.45,3.88-3.87,5.62-3.64,4.3-6.33,7.29-7.82,9.04-1.53,1.71-1.83,2.19-.92,1.21-1.23,1.33-1.71,2.66-2.88,4.04-2.4,2.73-5.1,4.65-7.59,6.7-.28.36-1.22,1.36-1.62,1.62-3.44,2.45-6.71,4.37-10.82,7.35.31-.35.62-.7.62-.7-.82.46-1.22.69-2.04,1.15.92-1.06,2.06-2.21,3.21-3.41,1.13-1.23,2.34-2.45,3.38-3.67Z"/>
    <path class="st4" d="M276.85,253.86c-.67-.59-1.73-1.09-2.37-2.05-3.78-4.81-6.52-9.7-9.12-14.52-1.28-2.4-2.57-4.8-3.88-7.24-1.31-2.46-2.57-4.97-3.87-7.55-3.01-5.66-5.83-10.56-9.79-15.47,1.12,1.34,2.07,2.81,3.23,4.12,2.33,2.64,4.3,5.17,6.45,8.01,1.93,2.57,4.41,5.64,6.11,8.82,2.19,3.97,3.84,6.86,4.81,8.43.98,1.58,1.3,1.91.75.98.75,1.26,1.74,1.89,2.62,3.04,1.66,2.38,2.65,4.82,3.99,7.02.27.25.98,1.07,1.15,1.4.41.73.79,1.46,1.21,2.15.4.71.83,1.42,1.31,2.1.93,1.4,2.07,2.79,3.67,4.04-.18-.07-.35-.14-.49-.19-.13-.05-.22-.09-.22-.09.54.55.81.82,1.35,1.37-2.24-.73-4.81-2.61-6.91-4.36Z"/>
    <path class="st4" d="M256.78,259.73c-.89-.13-1.88-.19-2.93-.3-1.04-.13-2.14-.31-3.27-.62-5.98-1.51-11.68-3.27-17.18-5.25-5.5-1.98-10.8-4.18-15.94-6.76-2.55-1.31-5.11-2.67-7.52-4.3-2.42-1.61-4.72-3.38-6.92-5.27-4.4-3.79-8.41-8.07-12.25-12.66-4.32-5.06-8.15-10.04-11.51-15.29-3.36-5.25-6.28-10.77-8.5-16.93,1.26,3.39,2.65,6.77,4.53,9.89,3.8,6.22,7.86,11.38,12.78,16.73,4.45,4.83,10.28,10.32,15.76,15.18,3.45,3.07,6.7,5.35,9.52,7.02,2.84,1.63,5.21,2.77,6.94,3.55,3.47,1.56,4.39,1.76,2.34.9,2.75,1.2,4.95,1.52,7.77,2.44,5.65,1.96,10.63,4.09,15.73,5.76.74.14,2.95.64,3.68.91,1.64.58,3.26,1.08,4.87,1.63,1.62.49,3.24,1.04,4.93,1.48,3.36.94,6.98,1.8,11.21,2.12-.77.03-1.54.06-1.54.06.77.12,1.35.24,1.94.3.59.05,1.18.1,1.96.17-2.33.35-5.1.31-7.94.15-2.83-.21-5.75-.54-8.46-.91Z"/>
    <path class="st4" d="M216.68,143.23c.56.41,1.43.71,1.97,1.41,6.25,6.98,10.73,13.81,14.99,21.84,2.47,4.41,4.57,8.32,6.85,12.71-.67-1.19-1.18-2.48-2.03-3.58-1.66-2.22-3.21-4.19-4.97-6.33-1.6-1.93-3.75-4.13-5.2-6.54-3.68-6.06-6.01-8.2-4.95-6.87-.69-.9-1.61-1.23-2.43-2.01-1.54-1.67-2.46-3.55-3.64-5.22-.24-.16-.87-.76-1.01-1.03-1.39-2.28-2.43-4.53-4.57-6.96.26.15.53.3.53.3-.31-.53-.46-.79-.77-1.31,1.6.9,3.5,2.36,5.23,3.59Z"/>
    <path class="st4" d="M368.36,144.35c.06.64.43,1.46.21,2.27-.72,4.35-2.24,8.19-4.18,11.67-1.95,3.49-4.34,6.62-7.07,9.69-2.94,3.49-5.64,6.42-8.55,9.78.78-.95,1.69-1.8,2.34-2.86,1.3-2.13,2.47-4.06,3.68-6.25,1.1-1.97,2.18-4.51,3.66-6.51,1.87-2.53,2.89-4.55,3.41-5.71.51-1.17.53-1.5.22-.82.41-.92.21-1.78.42-2.75.55-1.89,1.53-3.42,2.12-5.1-.03-.26.04-1,.16-1.24.86-2.14,1.84-4.17,1.87-7.06.1.26.2.51.2.51.11-.54.17-.81.29-1.34.64,1.55,1.01,3.74,1.23,5.71Z"/>
  </g>
  <g>
    <path class="st0" d="M134.56,78.25c.47,2.1.45,2.62.42,5-.03.37,0,1.93.28,2.49,1.02,1,1.68.85,1.83,2.17.24.79.36,1.81-.61,2.59-.69.58-11.75,1.67-12.7,1.36-3.39-1.29-4.3-9.64-4.41-10.52-.12-.93-.23-1.85-.35-2.78-.25-1.38-.64-2.67-1.19-3.42-.54-.67-.98-1.14-1.63-1.43-.65-.29-1.17-.22-1.85-.13-.9.71-.9,1.31-.5,2.07.24,1.83.47,3.65.71,5.48.03.22.49,4.4.61,4.75.06.44.16,1.83.46,2.39.45.54,1.9,1.24,2.14,1.96.14.5.17,1.32-.48,2.14-.97,1.23-6.23,1.33-7.49,1.5-.49.07-.99.13-1.48.2-1.26.17-1.71.16-3.11.42-.89.12-1.78.25-2.66.37-.52.07-2.41.56-2.81.4-1.29-.56-.99-1.65-1.19-2.51,1.7-2.4,1.44-1.62,1.07-4.17-.07-.51-.14-1.02-.22-1.53-.07-.51-.26-1.3-.35-1.96-.13-.92-.26-1.85-.39-2.77-.12-.88-.16-1.69-.28-2.49-1.59-11.26-3.18-22.52-4.76-33.78-.08-.58-.36-1.44-.46-2.17-.08-.58-.14-1.54-.24-2.27-.06-.44-.15-1.62-.46-2.17-.29-.4-1.62-.89-1.78-1.98-.26-.71-.11-1.32.2-1.89.9-.87,6.98-1.42,7.21-1.45,2.91-.4,5.83-.79,8.74-1.17,6.18-.88,14.08-2.07,19.97,3.48,5.88,5.48,6.66,16.22,5.79,21.29-.36,2.27-1.1,4.5-2.76,6.7-.73.97-1.48,1.73-2.82,2.71-.37.12-.51.21-.8.39-.12.04-.25.08-.37.12-.15.04-.3.09-.44.13-.48.5-.76.69-.64,1.63,6.52,2.11,8.13,2.31,9.8,8.87ZM109.34,41.83c.2.94.36,1.59.48,2.54.11.88.06,1.7.18,2.58.51,3.92,1.01,7.84,1.52,11.77.09.73.21,1.61.29,2.26.08.66.33,1.37.42,2.03-.03.38-.16,4.11-.05,4.39.46.61.58.89,1.35.94.38-.05.9-.19,1.77-1.12,2.09-2.27.42-10.67.17-12.65-.37-2.95-.74-5.9-1.11-8.85-.32-1.89-.68-7.94-3.74-9.11-1.4-.49-2.12-.02-2.4.24-.88,1.08-.09,1.72.25,2.57.84,1.08.71,1.25.86,2.42Z"/>
    <path class="st0" d="M154.09,39.07c10.63-1.01,10.02-.92,12.61,9.19.32,1.25.63,2.51.95,3.76.11.36.46,1.73.73,2.23.28.57,1.23,1.82,1.86,1.99.13-.01.25-.02.38-.03,2.24-4.26,2.2-7.58.16-10.67-2.81-3.98-4.77-5.95-3.58-9.23.56-1.6,1.78-2.82,3.78-3.13,1.6-.43,3.8-.24,5.74,1.67,2.72,2.89,2.1,10.85,1.43,14.01-.52,1.89-1.03,3.78-1.54,5.67-.12.45-.5,1.44-.45,1.96-.88,7.27-1.75,14.54-2.59,21.81-.39,5.14-2,16.21-9.19,20.28-2.19,1.24-4.87,1.94-7.14.76-1.72-.87-2.84-2.38-3.02-4.14-.14-1.39.27-3.21,1.87-4.48.7-.51,1.63-.98,2.89-1.02.59-.06.83.07,1.52.22.15.06,1.15.26,1.69.43.83.07,1.59.22,2.24-.8.66-1.02-1.33-7.06-1.55-7.85-.74-2.79-1.48-5.58-2.22-8.37-.79-2.74-.81-2.22-2.07-5.06-.25-.72-.49-1.43-.74-2.15-.04-.44-.42-1.22-.55-1.73-2.19-6.38-4.4-12.75-6.63-19.12-.2-.47-.4-.95-.61-1.42,0,0-.76-.66-1.14-1.29-.07-.73-.84-2.21.71-3.03,1.49-.15,2.98-.29,4.46-.44Z"/>
    <path class="st0" d="M216.65,82.7c-.48.91-1.51,1.19-3.81,1.39-1.24.07-2.48.14-3.72.21-.82.04-7.79.77-8.67.02-.32-.35-.73-.84-.64-1.73-.01-.22.04-.52.37-1.13.16-.16.33-.32.49-.47.11-.2.22-.41.34-.61.4-.84.15-1.19.09-2.07-.05-.73-.31-1.38-.36-2.12-.05-.71-.09-1.42-.14-2.13-.49-7.55-.98-15.1-1.47-22.65-.1-.29-.17-2.65-.2-3.09-.22-5.77-.44-11.54-.65-17.31-.03-1.7-.3-2.27-.82-3.05-1.73-1.44-1.3-.8-1.43-2.86.44-.47.58-.7,1.65-1.07.61-.19,1.16-.22,1.7-.26.47-.03,1.17.07,1.8.03.47-.03,1.09,0,1.72-.03.54-.04,5.66-.71,7.01-.19,1.6.72,1.66,1.83,1.87,4.32.03.59.34,1.97.65,4.83.74,13.56,1.47,27.13,2.21,40.69.16,2.87.03,1.84.33,4.78.02.39.04.79.06,1.18,1.36,1.55,2.07,2.4,1.6,3.31Z"/>
    <path class="st0" d="M260.82,36.86c2.52,2.68,3.99,8.48,3.12,11.07-.66,1.7-1.26,2.08-3.01,2.34-3.42.65-9.49-1.04-10.91.18-1.05.77-1.03,1.43-.81,3.71.06,2.06-.11,1.7-.12,3.76.11,3.71.21,7.42.32,11.12.02.88-.46,7.53,1.83,9.16.53.35,1.36.7,2.18.31.82-.24,1.61-1.37,2.02-2.92.47-2.15-.93-4.33.9-6.36.88-.98,2.3-1.67,3.66-1.55,1.06.12,2.35.98,3.13,2.37,1.01,1.97.68,4.63-.48,6.64-2.17,3.95-7.71,6.2-11.05,6.52-4.61.57-7.84-.65-12.12-5.44-5.85-6.72-6.65-23.42-5.08-30.41.91-4.09,4.77-11.91,10.13-13.85.3-.23,1.38-.49,2.92-.75,4.15-.79,9.36-.47,13.38,4.1ZM250.12,45.95c.78.49,1.01.42,1.68-.12,1.43-.92,1.01-5.33.91-6.22-.13-1.91-.68-2.64-1.38-2.91-.55-.35-1.16-.26-1.77.19-.98.69-1.07,2.98-1.02,4.67.13,1.84.49,3.89,1.58,4.38Z"/>
    <path class="st0" d="M286.64,32.39c1.01,0,9.04.16,9.96.98,1.38,1.26,1.49,7.38,1.48,8.56-.07,9.48-.14,18.96-.21,28.44.06,2.43-.39,2.13-.33,4.86.07.81-.09,1.47.36,2.36.29.81.22.37.96,1.11.3.45.37.52.36,1.33,0,.52.21,1.33-.98,1.76-1.12.87-5.89.19-6.48.19-.65,0-1.29,0-1.94,0-1.27,0-6.41.67-7.23-1.17-.15-.66,0-1.91.66-2.58.82-.81.59-1.69.59-2.51.22-2.65.22-3.17.13-5.23,0-1.38,0-2.75-.01-4.13-.05-.57-.1-1.13-.16-1.7.13-7.05.26-14.1.39-21.15,0-.22.07-1.18.15-2.65.05-.93.1-1.87.15-2.8,0-1.47-.23-1.25-1.32-2.28-.62-1.18-.63-2.06.07-2.8.46-.44,1.16-.67,3.4-.6ZM296.98,22.47c.77.74,1.23,1.85.84,3.03-.48,1.55-1.73,3.53-4.29,4.32-.08,0-.62.15-.93.37-.31,0-.7-.07-1.08.07-.85.22-1.01.29-2.09.73-1.24.22-2.86-.15-4.18-1.03-1.63-1.03-1.63-1.32-1.56-2.8.07-1.7,1.39-3.69,3.18-4.72.62-.29,2.41-.74,4.13-1.18,2.1-.36,4.52-.13,5.99,1.21Z"/>
    <path class="st0" d="M353.14,55.53c-.91,4.75-4.47,12.62-10.77,15.9-1.3.61-2.9,1.21-5.26,1.86-1.9.52-4.47,1.17-5.26,2.33-.39.57-.57,1.31-.06,1.99.64,1.05,1.09.85,1.99.88,5.84-4.51,7.22-6.45,12.28-5.28,2.15.61,4.12,2.03,4.89,4.65,1.05,3.15.27,6.8-2.72,10.35-3.54,4.34-9.32,6.61-13.67,6.16-3.46-.34-6.53-1.47-8.33-5.87-2.9.06-4.76.39-7.06-2.69-1.59-2.1-1.92-3.95-1.12-6.29,1.52-4.53,3.7-4.71,8.58-7.3.02-.66-.12-1.11-1.23-1.66-.82-.39-1.11-.55-2.07-1.46-.88-.76-2.7-3.46-2.92-3.91-2.04-3.22-1.35-3.64-2.16-8.08-.87-5.18.94-15.69,7.08-20.25,2.04-1.42,5.97-3.59,8.23-3.96,1.79-.39,7.34.11,8.13-.08.78-.19,1.56-.38,1.91-1.4.3-1.54-1.7-2.21-2.89-3.43-1.12-1.22-1.62-2.49-1.02-3.95.52-1.46,1.97-2.66,4.01-2.87,1.97-.37,4.28.25,5.77,1.94,1.19,1.38,1.65,4.87.87,6.68-.7,1.67-2.4,3.51-3.62,4.79,7.11,7.17,7.54,15.1,6.43,20.94ZM333.81,90.8c1.98.66,3.47.42,4.31-.21.91-.55,1.17-1.58,1.05-2.32-.03-1.18-.88-2.17-1.76-2.72-1.24-.71-3.26-.49-4.54.13-1.52.84-2.14,1.85-1.88,2.96.27.89,1.5,1.74,2.82,2.16ZM337.69,65.87c-.26-1.34-.47-1.79-.41-3.48.02-.64.05-1.28.07-1.92.03-.88-.01-1.77.02-2.58.13-.85.26-1.71.4-2.56.08-2.18.16-4.37.24-6.55.24-2.43.74-9.63-.44-11.22-.52-.76-1.2-1-1.59-.94-.77-.03-1.25.4-1.49.76,0,.07.56,3.85.53,4.81.05.89-.52,1.9-.54,4.63-.16,4.79-.32,9.57-.48,14.36.08,2.22.18,3.69.23,4.43.06.45.24,2,.53,2.31.58.68,1.62,1.09,2.07,1.1.68-.2,1.16-.77,1.41-1.42.11-.88-.2-.74-.54-1.71Z"/>
    <path class="st0" d="M400.45,37.24c5.29,2.72,5.57,5.64,5.44,10.8-.05.56-.1,1.12-.14,1.69q-.03.3-.22.72c-.03.37.03.52-.23.87-.18,2.06-.35,4.11-.53,6.17.06.5.12,1,.18,1.49-.07.78-.13,1.57-.2,2.35-.08.96-.39,1-.09,1.99-.35,4.11-.7,8.22-1.06,12.34-.21,1.61-.43,3.22-.64,4.83-.37.86.02,2.37.09,2.45.79,1.32.97.97.82,2.66-.64,1.35-.79,1.34-1.98,1.24-3.93-.41-7.87-.8-11.81-1.18-2.05-1.56-1.32-7.27-1.16-9.47.53-7.13,1.07-14.26,1.6-21.38.2-1.69,1.19-8.63-.45-10.45-.79-.8-1.32-.98-1.7-1.01-.46.04-.87.31-1.22.95-.52.85-.02,1.33.06,2.3-.02.22.09.96,0,2.21-.01.15-.13,1.77-.16,2.21.03.59-.06,1.84-.01,2.29-.5,6.88-.99,13.77-1.49,20.65-.15,1.02-.32,2.34-.2,4.79-.01.15,0,2.14.13,2.37.31.84,1.41,1.29,1.7,2.34.03.67-.09,1.25-.73,1.72-.96.81-5.39.13-7.69-.1-.97-.07-1.93-.13-2.9-.19-.44-.03-5.15-.11-5.77-.88-.29-.24-.55-.85-.26-1.79.08-1.25,1.03-.97,1.61-1.82.05-.81.1-1.62.15-2.43,0-.15.05-2.06.21-4.57.33-5.37.67-10.74,1-16.11-.03-.72-.06-1.43-.1-2.15.06-1.03.13-2.06.19-3.09.05-.88.11-1.76.17-2.72.03-.56.07-1.13.1-1.69-.17-.97,0-1.18.07-2.29.03-.51.06-1.03.1-1.54.11-.98.22-1.96.34-2.93.18-2.87.36-5.74.53-8.6,0-.07.18-1.69.1-2.95.03-.44.1-.36-.15-1.34-.05-.1-.09-.2-.14-.3-.1-.13-.19-.26-.29-.39-.07-.08-.37-.39-.5-.77.48-2.7.33-2.79,3.36-2.67.88.06,1.76.11,2.64.17,2.4.38,4.35.44,4.5.45,2.03.06,3.28,0,4.19,1.47.63,1.01.44,4.76.31,6.53-.07,1.03-.3,2.05-.38,3.08-.03.37-.07,1.03-.12,1.62.19.6-.29.79.58,1.67,5.5-1.22,6.68-4.31,12.13-1.58Z"/>
    <path class="st0" d="M438.53,29.81c1.93,1.77,2.05,5.63,1.59,7.73-.67,3.26-4.1,8.96-9.09,10.89-1.69.64-2.7.76-3.13.42-.37-.19-.78-.67-.75-1.78.06-2.14,1.23-1.43,2.79-2.31,1.33-.9,2.15-2,1.98-3.42-.02-1.26-.67-1.77-1.47-3.04-1.03-1.36-1.43-2-1.54-3.27-.26-2.84,1.13-5.74,4.73-6.48,1.61-.35,3.61.01,4.89,1.26Z"/>
    <path class="st0" d="M468.91,49.55c-.22.49-.26,1.38-.25,1.9.14,1.28.48,2.22,1.75,3.8.36.39.72.79,1.08,1.18,8.94,10.06,9.7,15.11,7.48,24.32-1.05,4.17-2.46,10.28-9.32,12.99-2.95,1.15-9.65.64-11.8-.81-2.57-1.67-4.05-3.78-4.15-6.61.01-1.33.22-3.02,1.64-4.03,1.17-.89,2.63-1.01,4.16-.51,1.37.55,2.55,1.44,3.06,3.37.19.84-.21,3.91,1.33,4.86.41.35,1.14.52,2.01.19.8-.34,1.68-1.26,1.91-2.42.46-2.32-1.42-5.18-4.79-9.7-.41-.55-.82-1.1-1.23-1.65-6.91-10.39-5.21-17.81-3.48-22.87.83-2.35,4.35-7.56,9.12-8.72,5.16-1.26,9.08-.65,11.79,1.73,1.67,1.5,2.7,4.17,2.36,5.98-.2,1.39-1.05,2.46-2.54,3.14-.97.31-2.38.41-3.81-.53-1.77-1.28-1.74-2.1-2.13-3.78-.09-.53.1-1.33-.5-2.07-.66-.91-.97-.95-1.96-1.08-.58.22-1.25.58-1.73,1.33Z"/>
  </g>
  <g>
    <path class="st0" d="M48.12,364.95c.21,2.07.14,2.57-.14,4.85-.07.36-.21,1.85,0,2.42.86,1.07,1.5,1,1.5,2.28.14.78.14,1.78-.86,2.42-.71.5-11.33.29-12.19-.14-3.07-1.64-2.92-9.77-2.92-10.62v-2.71c-.07-1.35-.29-2.64-.71-3.42-.43-.71-.78-1.21-1.35-1.57s-1.07-.36-1.71-.36c-.93.57-1,1.14-.71,1.92v5.35c0,.21-.07,4.28,0,4.63,0,.43-.07,1.78.14,2.35.36.57,1.64,1.43,1.78,2.14.07.5,0,1.28-.71,2-1.07,1.07-6.06.5-7.27.5h-1.43c-1.21,0-1.64-.07-2.99,0h-2.57c-.5,0-2.35.21-2.71,0-1.14-.71-.71-1.71-.78-2.57,1.92-2.07,1.57-1.35,1.57-3.85v-1.5c0-.5-.07-1.28-.07-1.92v-2.71c0-.86.07-1.64.07-2.42v-33.01c0-.57-.14-1.43-.14-2.14,0-.57.07-1.5.07-2.21,0-.43.07-1.57-.14-2.14-.21-.43-1.35-1.07-1.35-2.14-.14-.71.07-1.28.43-1.78.93-.71,6.49-.43,6.7-.43h8.06c5.7-.07,12.97-.29,17.75,5.7,4.78,5.92,4.42,16.33,3.07,21.1-.57,2.14-1.5,4.21-3.28,6.13-.78.86-1.57,1.5-2.92,2.28-.36.07-.5.14-.78.29l-.36.07-.43.07c-.5.43-.78.57-.78,1.5,5.85,2.78,7.34,3.14,8.2,9.62ZM28.87,327.03c.07.93.14,1.57.14,2.5,0,.86-.14,1.64-.14,2.5v13.69c0,.64.14,1.35.14,2-.07.36-.64,3.92-.57,4.21.36.64.43.93,1.14,1.07.36,0,.86-.07,1.78-.86,2.21-1.92,1.64-10.19,1.64-12.12v-8.63c-.07-1.85.29-7.7-2.35-9.2-1.21-.64-1.92-.29-2.21-.07-.93.93-.29,1.64-.07,2.5.64,1.14.5,1.28.5,2.42Z"/>
    <path class="st0" d="M78.35,333.08c2.28,2.64,3.56,8.27,2.71,10.76-.64,1.64-1.21,2-2.85,2.21-3.21.57-8.84-1.21-10.19-.07-1,.71-1,1.35-.86,3.56,0,2-.14,1.64-.21,3.64v10.76c0,.86-.64,7.27,1.5,8.91.5.36,1.28.71,2.07.36.78-.21,1.57-1.28,2-2.78.5-2.07-.78-4.21,1-6.13.86-.93,2.21-1.57,3.49-1.43,1,.14,2.21,1,2.92,2.35.93,1.92.57,4.49-.57,6.42-2.14,3.78-7.49,5.85-10.69,6.06-4.42.43-7.49-.86-11.41-5.63-5.35-6.7-5.42-22.88-3.71-29.58,1-3.92,4.85-11.33,9.84-13.05.29-.21,1.28-.43,2.71-.64,3.85-.64,8.63-.21,12.26,4.28ZM68.23,341.64c.71.5.93.43,1.57-.07,1.35-.86,1.07-5.13,1-5.99-.07-1.85-.57-2.57-1.21-2.85-.5-.36-1.07-.29-1.64.14-.93.64-1.07,2.85-1.07,4.49.07,1.78.36,3.78,1.35,4.28Z"/>
    <path class="st0" d="M94.46,334.15c-.14.5-.07,1.35,0,1.85.29,1.21.71,2.07,2.07,3.42l1.14,1c9.48,8.48,10.91,13.19,10.05,22.31-.43,4.13-.93,10.19-7.06,13.69-2.64,1.5-9.05,1.85-11.26.71-2.64-1.28-4.28-3.14-4.71-5.85-.14-1.28-.14-2.92,1.07-4.06,1-1,2.35-1.28,3.85-1,1.35.36,2.57,1.07,3.28,2.85.29.78.29,3.78,1.85,4.49.43.29,1.14.36,1.92-.07.71-.43,1.43-1.43,1.5-2.57.14-2.28-2-4.78-5.7-8.7l-1.35-1.43c-7.7-9.12-6.92-16.47-5.92-21.53.5-2.35,3.14-7.77,7.34-9.48,4.56-1.85,8.2-1.78,10.98.14,1.71,1.21,2.99,3.64,2.92,5.42,0,1.35-.64,2.5-1.92,3.35-.86.43-2.14.71-3.56,0-1.78-1-1.85-1.78-2.42-3.35-.14-.5-.07-1.28-.71-1.92-.71-.78-1-.78-1.92-.78-.5.29-1.07.71-1.43,1.5Z"/>
    <path class="st0" d="M128.97,331.02c0,1.35-.36,1.92-.57,2.14-.57.43-1.78.43-2.07,1.14-.36,1.21.36,1.28,0,2.42v5.7c0,.29-.07,1.92-.07,2.92v4.42l.29,2.85v13.83c-.07,2.14-.14,3.85-.07,4.28.07,1.07.21,1.64.57,2.21,1,1.35,1.35.71,1.35,2.14.07.71-.21,1.43-.78,1.85,0,0-10.69.07-10.84.07h-1.14c-2.71,0-3.28.21-3.35-2.85,1.71-2.5,1.14-2.07,1.28-4.71v-5.28s.14-1.85.14-2v-19.32l-.14-1.64v-1.14c0-.93-.14-1.35-.07-2,0-.36.14-1.78.29-2.14.14-1.21-.07-1.71-.29-2.14-1.21-1.14-1.21-.64-1.21-1.92-.21-1.07,0-2,.71-2.64l3.28-.93c1-.5,2.07-1.35,3.07-2.71,2.07-2.85,1.85-6.27,3.99-7.63,1.14-.64,2.5-1,3.42-.5.64.36,1.57,1.14,1.71,2.5.14.86-.14,1.85-.78,2.99-.43.64-1.92,2.35-2.21,2.99-.29,1-.21,1.78.36,2.35.86.86,1.35.5,2.42.71.93.57.71,1.14.71,2Z"/>
    <path class="st0" d="M138.81,376.71c-6.56-3.49-5.99-13.12-5.85-18.11.36-6.84,1.07-10.62,9.05-13.97l1.28-.57c2.28-.86,7.77-2.64,8.41-6.49.29-1.28.07-3.28-.93-4.13-.64-.64-1.71-1-2.57-.64-1.85.64-1.71,2.14-2.85,4.78-.78,2.21-2.07,3.56-4.06,3.85-1.21.14-2.92-.07-4.13-1.43-1.14-1.21-1.21-3.07-.64-4.85.93-3.07,3.56-5.06,6.99-5.99,3.99-1,10.55-1.21,15.11,2.99,5.06,4.71,4.63,7.34,4.71,14.76v24.67c0,1.07.07,1.35.93,2.42.36,1,.43,1.78,0,2.5-.86,1.21-6.7.5-7.77.5h-1.78c-2.57,0-2.35.14-4.28-2.5-4.06,3.07-7.49,4.35-11.62,2.21ZM150.07,368.16v-2.07c0-.14.21-2.92.21-2.92v-1.64l-.21-2.57v-1.21l.21-5.56c.07-.64,1.07-4.85.78-5.49-.21-.57-.21-.86-1-1.07-.5-.14-1.07.21-1.57.64-1.71,1.64-1.64,11.98-1.64,13.4v2.85c0,.86.21,1.71.21,2.64v1.57c.07,1.07-.14,1,.21,2,.36,1.14,0,1.07,1.28,1.85.93,0,1.14-.14,1.64-.86.21-.57-.14-1.21-.14-1.57Z"/>
    <path class="st0" d="M182.72,330.45c2.14,2.5.86,3.49,1.35,9.77v22.03c0,1.28-.21,6.92,1.85,7.91.5.36,1.28.36,1.92-.29.86-.78.36-2.07,0-4.99,0-.36-.21-3.42-.14-5.2v-18.96c0-1.78.36-2.99.29-4.71,0-.21-.21-2.21-.29-2.42-.29-.14-.57-.5-1.14-.78-.14-.29-.29-1-.29-1.21,0-1.07.29-1.35,1.43-1.85.21-.14,11.33-.14,11.69,0,1.64.86,1.43,2,1.43,3.42,0,.29-.07,1.64.07,2v.43l-.07.5c.07.36.07.78,0,1v29.73l.36,4.35c0,.71-.21,1.28.29,2.14.78.86,1.5,1.21,1.14,2.21-.07.93-.36,1.21-1.28,1.57-.57.36-2.99.21-4.99,0-2.64-.21-4.99.14-5.06.14-.71-.14-1.21-.43-2.07-1.28-.64-.5-.71-1.5-1.64-1.71-1-.21-1.21.57-2.35,1.35-.86.64-1.64,1-2.5,1.35-2.21.71-5.49.07-7.84-1.71-3.28-2.64-3.64-8.98-3.71-11.55v-22.96l.21-2.21c0-.64.07-1.64.07-2.42,0-.36-.21-1.92-.36-2.28-1.28-1.28-1.21-.86-1.21-2.21.21-1.14.64-1.35,1.71-1.78.78-.29,2.92,0,3.78,0,1.71,0,1.85-.14,3.78-.29,1.35-.07,2.64-.21,3.56.93Z"/>
    <path class="st0" d="M221.43,338.29c-.78.57-.43,1.57-.43,2.35.29.64.36,1.5.64,2.28,0,.36.43,3.14.43,4.78l-.43,6.2c0,.36-.21,2.99-.21,4.21v5.56c.07,3.35-.14,2.35.07,5.63.07.64.21,2,.57,2.71,0,.93,1.57,1.85,1.57,2.85.21.78.14,1.43-.36,1.85-.78.86-5.2.29-6.56.29h-1.85c-1,0-6.77.93-7.41-.78,0-.78-.21-1.57.5-2.21.78-.64.71-2.07.64-2.28,0-2.14.14-2.28.07-4.56v-21.24c0-.29.29-1.07.07-1.43v-10.41c-.21-1.21-1.78-2.5-.86-3.92.64-1,6.42-.71,7.34-.71h1.78c1.71,0,2.35.14,2.78.5.21.5.64,2.35,1.57,2.71,3.07-2.99,4.06-4.21,7.34-3.56,1.78.36,2.92,1.21,3.64,2.99.64,1.43.14,4.71-1.07,6.56-1.28,2.07-3.21,3.35-5.13,3.42-1,0-1.92-.29-2.64-1-.36-.43-.71-1-.78-1.43-.14-.29-.21-.93-.86-1.35h-.43Z"/>
    <path class="st0" d="M238.05,376.71c-6.56-3.49-5.99-13.12-5.85-18.11.36-6.84,1.07-10.62,9.05-13.97l1.28-.57c2.28-.86,7.77-2.64,8.41-6.49.29-1.28.07-3.28-.93-4.13-.64-.64-1.71-1-2.57-.64-1.85.64-1.71,2.14-2.85,4.78-.78,2.21-2.07,3.56-4.06,3.85-1.21.14-2.92-.07-4.13-1.43-1.14-1.21-1.21-3.07-.64-4.85.93-3.07,3.56-5.06,6.99-5.99,3.99-1,10.55-1.21,15.11,2.99,5.06,4.71,4.63,7.34,4.71,14.76v24.67c0,1.07.07,1.35.93,2.42.36,1,.43,1.78,0,2.5-.86,1.21-6.7.5-7.77.5h-1.78c-2.57,0-2.35.14-4.28-2.5-4.06,3.07-7.49,4.35-11.62,2.21ZM249.31,368.16v-2.07c0-.14.21-2.92.21-2.92v-1.64l-.21-2.57v-1.21l.21-5.56c.07-.64,1.07-4.85.78-5.49-.21-.57-.21-.86-1-1.07-.5-.14-1.07.21-1.57.64-1.71,1.64-1.64,11.98-1.64,13.4v2.85c0,.86.21,1.71.21,2.64v1.57c.07,1.07-.14,1,.21,2,.36,1.14,0,1.07,1.28,1.85.93,0,1.14-.14,1.64-.86.21-.57-.14-1.21-.14-1.57Z"/>
    <path class="st0" d="M295.43,329.45c5.49,2.78,5.06,7.84,5.13,12.55v29.09c.07,1.28.21,1.64.5,2.28.64,1,.78,1.5.43,2.5-.43,1.07-1.21,1.21-2.21,1.35-.43,0-10.12-.14-10.48-.5-2.14-1.85-1.64-5.63-1.57-9.98v-9.91c0-.43-.07-1.21-.21-1.64v-9.05c.14-.36.07-1.71.07-2.28v-1.43c-.07-1.92-.21-2.92-.5-3.49-.36-.86-.78-1.35-1.21-1.71-.64-.36-.78-.5-1.71-.5-1.14,1.14-.86,1.57-.57,2.57,0,1.78.78.93.21,2.64v3.56c-.07,1.85.29,1.07.36,2.92v1.43c0,.36.07.71,0,1.14v18.04c.07,1.92.14,3.07,1.85,5.49,0,.78.43,1.57-.78,2.28-.36.29-2.07.21-2.42.21h-5.49c-.78,0-6.63.43-7.34-.43-.29-.21-.64-.86-.5-1.78.36-.93.14-.43,1.43-1.78.43-.78.21-1.28.21-2.07,0-.64-.21-1.35-.21-2v-15.75c-.21-.78,0-1.35,0-2.21v-3.07c0-.57-.07-1.35-.07-2v-10.62c-.07-2.35.07-1.5-1.57-3.64.21-.86-.43-1.07.36-1.85.71-.78,1.07-.64,1.92-.71.36-.07,3.64.14,5.49.07,1.28,0,4.21-.36,5.42,1,.71.93.64,1.71,1.78,2.5,3.35-3.14,7.27-5.42,11.69-3.21Z"/>
    <path class="st0" d="M323.53,331.02c0,1.35-.36,1.92-.57,2.14-.57.43-1.78.43-2.07,1.14-.36,1.21.36,1.28,0,2.42v5.7c0,.29-.07,1.92-.07,2.92v4.42l.29,2.85v13.83c-.07,2.14-.14,3.85-.07,4.28.07,1.07.21,1.64.57,2.21,1,1.35,1.35.71,1.35,2.14.07.71-.21,1.43-.78,1.85,0,0-10.69.07-10.84.07h-1.14c-2.71,0-3.28.21-3.35-2.85,1.71-2.5,1.14-2.07,1.28-4.71v-5.28s.14-1.85.14-2v-19.32l-.14-1.64v-1.14c0-.93-.14-1.35-.07-2,0-.36.14-1.78.29-2.14.14-1.21-.07-1.71-.29-2.14-1.21-1.14-1.21-.64-1.21-1.92-.21-1.07,0-2,.71-2.64l3.28-.93c1-.5,2.07-1.35,3.07-2.71,2.07-2.85,1.85-6.27,3.99-7.63,1.14-.64,2.5-1,3.42-.5.64.36,1.57,1.14,1.71,2.5.14.86-.14,1.85-.78,2.99-.43.64-1.92,2.35-2.21,2.99-.29,1-.21,1.78.36,2.35.86.86,1.35.5,2.42.71.93.57.71,1.14.71,2Z"/>
    <path class="st0" d="M377.21,364.95c.21,2.07.14,2.57-.14,4.85-.07.36-.21,1.85,0,2.42.86,1.07,1.5,1,1.5,2.28.14.78.14,1.78-.86,2.42-.71.5-11.33.29-12.19-.14-3.07-1.64-2.92-9.77-2.92-10.62v-2.71c-.07-1.35-.29-2.64-.71-3.42-.43-.71-.78-1.21-1.35-1.57s-1.07-.36-1.71-.36c-.93.57-1,1.14-.71,1.92v5.35c0,.21-.07,4.28,0,4.63,0,.43-.07,1.78.14,2.35.36.57,1.64,1.43,1.78,2.14.07.5,0,1.28-.71,2-1.07,1.07-6.06.5-7.27.5h-1.43c-1.21,0-1.64-.07-2.99,0h-2.57c-.5,0-2.35.21-2.71,0-1.14-.71-.71-1.71-.78-2.57,1.92-2.07,1.57-1.35,1.57-3.85v-1.5c0-.5-.07-1.28-.07-1.92v-2.71c0-.86.07-1.64.07-2.42v-33.01c0-.57-.14-1.43-.14-2.14,0-.57.07-1.5.07-2.21,0-.43.07-1.57-.14-2.14-.21-.43-1.35-1.07-1.35-2.14-.14-.71.07-1.28.43-1.78.93-.71,6.49-.43,6.7-.43h8.06c5.7-.07,12.97-.29,17.75,5.7,4.78,5.92,4.42,16.33,3.07,21.1-.57,2.14-1.5,4.21-3.28,6.13-.78.86-1.57,1.5-2.92,2.28-.36.07-.5.14-.78.29l-.36.07-.43.07c-.5.43-.78.57-.78,1.5,5.85,2.78,7.34,3.14,8.2,9.62ZM357.96,327.03c.07.93.14,1.57.14,2.5,0,.86-.14,1.64-.14,2.5v13.69c0,.64.14,1.35.14,2-.07.36-.64,3.92-.57,4.21.36.64.43.93,1.14,1.07.36,0,.86-.07,1.78-.86,2.21-1.92,1.64-10.19,1.64-12.12v-8.63c-.07-1.85.29-7.7-2.35-9.2-1.21-.64-1.92-.29-2.21-.07-.93.93-.29,1.64-.07,2.5.64,1.14.5,1.28.5,2.42Z"/>
    <path class="st0" d="M407.44,333.08c2.28,2.64,3.56,8.27,2.71,10.76-.64,1.64-1.21,2-2.85,2.21-3.21.57-8.84-1.21-10.19-.07-1,.71-1,1.35-.86,3.56,0,2-.14,1.64-.21,3.64v10.76c0,.86-.64,7.27,1.5,8.91.5.36,1.28.71,2.07.36.78-.21,1.57-1.28,2-2.78.5-2.07-.78-4.21,1-6.13.86-.93,2.21-1.57,3.49-1.43,1,.14,2.21,1,2.92,2.35.93,1.92.57,4.49-.57,6.42-2.14,3.78-7.49,5.85-10.69,6.06-4.42.43-7.49-.86-11.41-5.63-5.35-6.7-5.42-22.88-3.71-29.58,1-3.92,4.85-11.33,9.84-13.05.29-.21,1.28-.43,2.71-.64,3.85-.64,8.63-.21,12.26,4.28ZM397.31,341.64c.71.5.93.43,1.57-.07,1.35-.86,1.07-5.13,1-5.99-.07-1.85-.57-2.57-1.21-2.85-.5-.36-1.07-.29-1.64.14-.93.64-1.07,2.85-1.07,4.49.07,1.78.36,3.78,1.35,4.28Z"/>
    <path class="st0" d="M431.54,345.06c.14-.36.29-1.07.5-2.42s.07-3.28-.43-4.71c-1.21-3.78-4.56-6.77-3.07-10.55.64-1.5,2-2.5,3.78-2.85,1.85-.21,3.99.5,5.63,2.5,2.57,3.28,1.71,8.7.29,12.9l-1.92,5.2c-1.5,4.56-1.64,5.28-2.28,7.84l-2.99,14.69c-.29,1.5-1.28,8.2-3.49,9.27-.43.14-3.07.29-3.56.07-1.21-.64-2.85-6.49-3.14-7.34l-6.84-27.16c-.36-1.14-.43-2.57-.57-3.85l-1.64-5.99c-.86-.57-.78-1.78-.64-2.42.5-1.28.93-1.21,1.78-1.21.64-.14,10.69,0,11.33.43,2.42,1.57,2.92,8.63,3.21,10.19v1.28c.07.71.71,2.14,1,2.99.36.86.29,2.21,1.43,2.99,1.14-.5,1.21-.64,1.64-1.85Z"/>
    <path class="st0" d="M446.29,329.02c.93,0,8.34.14,9.2.93,1.28,1.21,1.43,7.13,1.43,8.27v27.52c.07,2.35-.36,2.07-.29,4.71.07.78-.07,1.43.36,2.28.29.78.21.36.93,1.07.29.43.36.5.36,1.28,0,.5.21,1.28-.93,1.71-1.07.86-5.63.21-6.2.21h-1.85c-1.21,0-6.13.64-6.92-1.14-.14-.64,0-1.85.64-2.5.78-.78.57-1.64.57-2.42.21-2.57.21-3.07.14-5.06v-3.99l-.14-1.64.43-20.46c0-.21.07-1.14.14-2.57l.14-2.71c0-1.43-.21-1.21-1.21-2.21-.57-1.14-.57-2,.07-2.71.43-.43,1.07-.64,3.14-.57ZM455.78,319.4c.71.71,1.14,1.78.78,2.92-.43,1.5-1.57,3.42-3.92,4.21-.07,0-.57.14-.86.36-.29,0-.64-.07-1,.07-.78.21-.93.29-1.92.71-1.14.21-2.64-.14-3.85-1-1.5-1-1.5-1.28-1.43-2.71.07-1.64,1.28-3.56,2.92-4.56.57-.29,2.21-.71,3.78-1.14,1.92-.36,4.13-.14,5.49,1.14Z"/>
    <path class="st0" d="M488.64,333.08c2.28,2.64,3.56,8.27,2.71,10.76-.64,1.64-1.21,2-2.85,2.21-3.21.57-8.84-1.21-10.19-.07-1,.71-1,1.35-.86,3.56,0,2-.14,1.64-.21,3.64v10.76c0,.86-.64,7.27,1.5,8.91.5.36,1.28.71,2.07.36.78-.21,1.57-1.28,2-2.78.5-2.07-.78-4.21,1-6.13.86-.93,2.21-1.57,3.49-1.43,1,.14,2.21,1,2.92,2.35.93,1.92.57,4.49-.57,6.42-2.14,3.78-7.49,5.85-10.69,6.06-4.42.43-7.49-.86-11.41-5.63-5.35-6.7-5.42-22.88-3.71-29.58,1-3.92,4.85-11.33,9.84-13.05.29-.21,1.28-.43,2.71-.64,3.85-.64,8.63-.21,12.26,4.28ZM478.52,341.64c.71.5.93.43,1.57-.07,1.35-.86,1.07-5.13,1-5.99-.07-1.85-.57-2.57-1.21-2.85-.5-.36-1.07-.29-1.64.14-.93.64-1.07,2.85-1.07,4.49.07,1.78.36,3.78,1.35,4.28Z"/>
    <path class="st0" d="M514.45,352.97c0,.78-.21,1.28-.21,2.14l-3.35,13.83c-.29.93-1.71,7.41-3.28,8.13-.57.21-2.28.43-3.49-.14-2-1.07-2.64-6.27-2.99-7.91l-6.49-32.65c-.21-2-.21-2.35-.43-2.92-.57-1.43-1.5-1.21-1.14-2.92.29-1.07.36-1.07,1.57-1.5.43-.14,10.27,0,10.69.21,3.07,1.85,3.56,10.05,3.71,11.26v1.64c.21,1.71.71,2.42.78,2.64.14.36.5,1.85,2.21,1.85,1.14-1.21.93-.93.93-2.42,0-.64-.07-1.71-.14-2.57-.29-2.5-.36-2.35-.71-4.99l-.57-3.49c-.5-.36-1.07-.5-1.35-1.07-.21-.29-.36-.86-.07-1.5.29-1,.93-1.14,1.78-1.43.21,0,4.71.29,5.63.29.71-.14,4.78-.36,5.7.29,2.71,1.71,2.92,8.63,3.07,9.77v1.85c.14.71.36,1.5.86,3.14.07.5.21,1.14.5,1.64.07.36.36,1.21,1,1.5,1.21,0,1.28-.57,1.64-1.78.07-.14.43-1.14.64-2.35.21-1.57-.07-3.85-.43-4.85-1.21-3.85-4.21-6.2-2.5-10.12.71-1.5,2.07-2.99,3.92-3.28,1.5-.07,3.71,1,4.99,2.71,2.5,3.49,1.5,8.27,0,12.55l-7.98,28.59c-.5,1.5-1.71,7.13-3.64,7.91-.57.14-3.42.29-3.99,0-1.35-.71-2.5-6.84-2.71-7.91l-2.5-11.98c-.29-1.5-.14-2.42-.29-4.13h-1.35Z"/>
    <path class="st0" d="M550.31,334.15c-.14.5-.07,1.35,0,1.85.29,1.21.71,2.07,2.07,3.42l1.14,1c9.48,8.48,10.91,13.19,10.05,22.31-.43,4.13-.93,10.19-7.06,13.69-2.64,1.5-9.05,1.85-11.26.71-2.64-1.28-4.28-3.14-4.71-5.85-.14-1.28-.14-2.92,1.07-4.06,1-1,2.35-1.28,3.85-1,1.35.36,2.57,1.07,3.28,2.85.29.78.29,3.78,1.85,4.49.43.29,1.14.36,1.92-.07.71-.43,1.43-1.43,1.5-2.57.14-2.28-2-4.78-5.7-8.7l-1.35-1.43c-7.7-9.12-6.92-16.47-5.92-21.53.5-2.35,3.14-7.77,7.34-9.48,4.56-1.85,8.2-1.78,10.98.14,1.71,1.21,2.99,3.64,2.92,5.42,0,1.35-.64,2.5-1.92,3.35-.86.43-2.14.71-3.56,0-1.78-1-1.85-1.78-2.42-3.35-.14-.5-.07-1.28-.71-1.92-.71-.78-1-.78-1.92-.78-.5.29-1.07.71-1.43,1.5Z"/>
  </g>
  <rect class="st2" width="576" height="399.23"/>
</svg>